<svg width="24" height="25" viewBox="0 0 24 25" fill="none" xmlns="http://www.w3.org/2000/svg">
<path d="M12 2.3208C9.81276 2.32338 7.71584 3.1934 6.16923 4.74002C4.62261 6.28664 3.75259 8.38356 3.75001 10.5708C3.74739 12.3582 4.33124 14.0971 5.41201 15.5208C5.41201 15.5208 5.63701 15.8171 5.67376 15.8598L12 23.3208L18.3293 15.8561C18.3623 15.8163 18.588 15.5208 18.588 15.5208L18.5888 15.5186C19.669 14.0955 20.2526 12.3574 20.25 10.5708C20.2474 8.38356 19.3774 6.28664 17.8308 4.74002C16.2842 3.1934 14.1873 2.32338 12 2.3208ZM12 13.5708C11.4067 13.5708 10.8266 13.3949 10.3333 13.0652C9.83995 12.7356 9.45543 12.267 9.22837 11.7189C9.00131 11.1707 8.9419 10.5675 9.05765 9.98553C9.17341 9.40359 9.45913 8.86904 9.87869 8.44948C10.2982 8.02992 10.8328 7.7442 11.4147 7.62844C11.9967 7.51269 12.5999 7.5721 13.1481 7.79916C13.6962 8.02622 14.1648 8.41074 14.4944 8.90409C14.8241 9.39744 15 9.97746 15 10.5708C14.999 11.3661 14.6826 12.1286 14.1202 12.691C13.5578 13.2534 12.7954 13.5698 12 13.5708Z" fill="#1F1F1F"/>
</svg>
