<svg width="24" height="25" viewBox="0 0 24 25" fill="none" xmlns="http://www.w3.org/2000/svg">
<path d="M20 11.8198H22C22 6.6898 18.127 2.8208 12.99 2.8208V4.8208C17.052 4.8208 20 7.7638 20 11.8198Z" fill="#1F1F1F"/>
<path d="M13 8.8208C15.103 8.8208 16 9.7178 16 11.8208H18C18 8.5958 16.225 6.8208 13 6.8208V8.8208ZM16.422 14.2638C16.2299 14.0891 15.9774 13.996 15.7178 14.004C15.4583 14.012 15.212 14.1206 15.031 14.3068L12.638 16.7678C12.062 16.6578 10.904 16.2968 9.71204 15.1078C8.52004 13.9148 8.15904 12.7538 8.05204 12.1818L10.511 9.7878C10.6975 9.60692 10.8062 9.36062 10.8142 9.101C10.8222 8.84139 10.7289 8.58884 10.554 8.3968L6.85904 4.3338C6.68408 4.14115 6.44092 4.0243 6.18119 4.00806C5.92146 3.99181 5.66564 4.07745 5.46804 4.2468L3.29804 6.1078C3.12515 6.28131 3.02196 6.51225 3.00804 6.7568C2.99304 7.0068 2.70704 12.9288 7.29904 17.5228C11.305 21.5278 16.323 21.8208 17.705 21.8208C17.907 21.8208 18.031 21.8148 18.064 21.8128C18.3086 21.7991 18.5394 21.6955 18.712 21.5218L20.572 19.3508C20.7415 19.1533 20.8273 18.8976 20.8113 18.6378C20.7952 18.3781 20.6785 18.1349 20.486 17.9598L16.422 14.2638Z" fill="#1F1F1F"/>
</svg>
