<svg width="24" height="25" viewBox="0 0 24 25" fill="none" xmlns="http://www.w3.org/2000/svg">
<path d="M11.9692 0.881348C5.55278 0.881348 0.302979 6.13115 0.302979 12.5476C0.302979 18.964 5.55278 24.2138 11.9692 24.2138C18.3856 24.2138 23.6354 18.964 23.6354 12.5476C23.6354 6.13115 18.3856 0.881348 11.9692 0.881348ZM21.5938 11.9643C19.0662 11.5754 16.8301 11.5754 14.6913 11.867C14.4969 11.2837 14.2052 10.7976 13.9136 10.2143C16.1496 9.24214 17.9968 7.88108 19.2606 6.22837C20.6217 7.88108 21.4966 9.82545 21.5938 11.9643ZM17.8023 4.96453C16.6357 6.52002 14.983 7.68665 12.9414 8.56161C11.9692 6.71446 10.8998 4.96453 9.63596 3.21459C10.4137 3.02016 11.1915 2.92294 11.9692 2.92294C14.2052 2.92294 16.2468 3.70069 17.8023 4.96453ZM7.59437 3.99234C8.85821 5.64506 10.0248 7.39499 10.997 9.24214C8.66377 9.92267 5.84444 10.2143 2.63622 10.3115C3.31675 7.49221 5.16391 5.25618 7.59437 3.99234ZM2.34457 12.5476V12.2559C6.03887 12.2559 9.34431 11.867 11.9692 10.9921C12.1636 11.4782 12.4553 11.9643 12.6497 12.3531C9.3443 13.4225 6.62218 15.4641 4.5806 18.6723C3.21954 17.0196 2.34457 14.8808 2.34457 12.5476ZM6.03887 20.1306C7.98324 17.1168 10.4137 15.1725 13.4275 14.2975C14.3025 16.6308 14.983 19.0612 15.3719 21.5889C12.1636 22.7555 8.66377 22.1722 6.03887 20.1306ZM17.3162 20.5195C16.9274 18.1863 16.2468 15.9502 15.4691 13.8114C17.3162 13.5198 19.2606 13.617 21.4966 14.0059C21.0105 16.728 19.5523 19.0612 17.3162 20.5195Z" fill="white"/>
</svg>
