<svg width="30" height="31" viewBox="0 0 30 31" fill="none" xmlns="http://www.w3.org/2000/svg">
<rect y="0.820801" width="30" height="30" rx="15" fill="white"/>
<path d="M15 8.3208C10.875 8.3208 7.5 11.6958 7.5 15.8208C7.5 19.9458 10.875 23.3208 15 23.3208C19.125 23.3208 22.5 19.9458 22.5 15.8208C22.5 11.6958 19.125 8.3208 15 8.3208ZM21.1875 15.4458C19.5625 15.1958 18.125 15.1958 16.75 15.3833C16.625 15.0083 16.4375 14.6958 16.25 14.3208C17.6875 13.6958 18.875 12.8208 19.6875 11.7583C20.5625 12.8208 21.125 14.0708 21.1875 15.4458ZM18.75 10.9458C18 11.9458 16.9375 12.6958 15.625 13.2583C15 12.0708 14.3125 10.9458 13.5 9.8208C14 9.6958 14.5 9.6333 15 9.6333C16.4375 9.6333 17.75 10.1333 18.75 10.9458ZM12.1875 10.3208C13 11.3833 13.75 12.5083 14.375 13.6958C12.875 14.1333 11.0625 14.3208 9 14.3833C9.4375 12.5708 10.625 11.1333 12.1875 10.3208ZM8.8125 15.8208V15.6333C11.1875 15.6333 13.3125 15.3833 15 14.8208C15.125 15.1333 15.3125 15.4458 15.4375 15.6958C13.3125 16.3833 11.5625 17.6958 10.25 19.7583C9.375 18.6958 8.8125 17.3208 8.8125 15.8208ZM11.1875 20.6958C12.4375 18.7583 14 17.5083 15.9375 16.9458C16.5 18.4458 16.9375 20.0083 17.1875 21.6333C15.125 22.3833 12.875 22.0083 11.1875 20.6958ZM18.4375 20.9458C18.1875 19.4458 17.75 18.0083 17.25 16.6333C18.4375 16.4458 19.6875 16.5083 21.125 16.7583C20.8125 18.5083 19.875 20.0083 18.4375 20.9458Z" fill="#1F1F1F"/>
</svg>
