<svg width="30" height="31" viewBox="0 0 30 31" fill="none" xmlns="http://www.w3.org/2000/svg">
<circle cx="15" cy="15.8208" r="15" fill="white"/>
<path fill-rule="evenodd" clip-rule="evenodd" d="M12.408 7.8658C13.2077 7.82898 13.4627 7.8208 15.5 7.8208C17.5373 7.8208 17.7923 7.82966 18.5914 7.8658C19.3905 7.90194 19.9359 8.02944 20.4132 8.21421C20.913 8.40307 21.3664 8.6983 21.7414 9.08012C22.1232 9.45444 22.4177 9.90716 22.6059 10.4076C22.7914 10.8849 22.9182 11.4303 22.955 12.2281C22.9918 13.0292 23 13.2842 23 15.3208C23 17.3581 22.9911 17.6131 22.955 18.4128C22.9189 19.2106 22.7914 19.756 22.6059 20.2333C22.4177 20.7338 22.1227 21.1873 21.7414 21.5622C21.3664 21.944 20.913 22.2385 20.4132 22.4267C19.9359 22.6122 19.3905 22.739 18.5927 22.7758C17.7923 22.8126 17.5373 22.8208 15.5 22.8208C13.4627 22.8208 13.2077 22.8119 12.408 22.7758C11.6102 22.7397 11.0648 22.6122 10.5875 22.4267C10.087 22.2385 9.63351 21.9435 9.25864 21.5622C8.87708 21.1876 8.58181 20.7344 8.39341 20.234C8.20864 19.7567 8.08182 19.2113 8.045 18.4135C8.00818 17.6124 8 17.3574 8 15.3208C8 13.2835 8.00886 13.0285 8.045 12.2294C8.08114 11.4303 8.20864 10.8849 8.39341 10.4076C8.58208 9.90722 8.87758 9.45397 9.25932 9.07944C9.63366 8.69796 10.0867 8.40269 10.5868 8.21421C11.0641 8.02944 11.6095 7.90262 12.4073 7.8658H12.408ZM18.5307 9.2158C17.7398 9.17966 17.5025 9.17216 15.5 9.17216C13.4975 9.17216 13.2602 9.17966 12.4693 9.2158C11.7377 9.24921 11.3409 9.37126 11.0764 9.47421C10.7266 9.61057 10.4764 9.77216 10.2139 10.0347C9.96503 10.2767 9.77353 10.5714 9.65341 10.8972C9.55045 11.1617 9.42841 11.5585 9.395 12.2901C9.35886 13.081 9.35136 13.3183 9.35136 15.3208C9.35136 17.3233 9.35886 17.5606 9.395 18.3515C9.42841 19.0831 9.55045 19.4799 9.65341 19.7444C9.77341 20.0697 9.965 20.3649 10.2139 20.6069C10.4559 20.8558 10.7511 21.0474 11.0764 21.1674C11.3409 21.2703 11.7377 21.3924 12.4693 21.4258C13.2602 21.4619 13.4968 21.4694 15.5 21.4694C17.5032 21.4694 17.7398 21.4619 18.5307 21.4258C19.2623 21.3924 19.6591 21.2703 19.9236 21.1674C20.2734 21.031 20.5236 20.8694 20.7861 20.6069C21.035 20.3649 21.2266 20.0697 21.3466 19.7444C21.4495 19.4799 21.5716 19.0831 21.605 18.3515C21.6411 17.5606 21.6486 17.3233 21.6486 15.3208C21.6486 13.3183 21.6411 13.081 21.605 12.2901C21.5716 11.5585 21.4495 11.1617 21.3466 10.8972C21.2102 10.5474 21.0486 10.2972 20.7861 10.0347C20.544 9.78585 20.2493 9.59435 19.9236 9.47421C19.6591 9.37126 19.2623 9.24921 18.5307 9.2158ZM14.542 17.6328C15.077 17.8555 15.6728 17.8856 16.2275 17.7179C16.7821 17.5502 17.2614 17.1951 17.5834 16.7132C17.9053 16.2314 18.05 15.6528 17.9928 15.0761C17.9355 14.4994 17.6798 13.9606 17.2693 13.5515C17.0077 13.29 16.6913 13.0898 16.343 12.9652C15.9946 12.8407 15.623 12.7949 15.2549 12.8312C14.8867 12.8675 14.5312 12.985 14.214 13.1752C13.8967 13.3654 13.6255 13.6236 13.42 13.9312C13.2145 14.2387 13.0797 14.588 13.0254 14.954C12.971 15.3199 12.9985 15.6933 13.1058 16.0473C13.2131 16.4013 13.3976 16.7271 13.6459 17.0013C13.8943 17.2755 14.2003 17.4912 14.542 17.6328ZM12.7741 12.5949C13.1321 12.2369 13.557 11.953 14.0247 11.7592C14.4925 11.5655 14.9938 11.4658 15.5 11.4658C16.0062 11.4658 16.5075 11.5655 16.9753 11.7592C17.443 11.953 17.8679 12.2369 18.2259 12.5949C18.5839 12.9529 18.8678 13.3778 19.0616 13.8455C19.2553 14.3133 19.355 14.8146 19.355 15.3208C19.355 15.827 19.2553 16.3283 19.0616 16.7961C18.8678 17.2638 18.5839 17.6887 18.2259 18.0467C17.503 18.7697 16.5224 19.1758 15.5 19.1758C14.4776 19.1758 13.497 18.7697 12.7741 18.0467C12.0511 17.3238 11.645 16.3432 11.645 15.3208C11.645 14.2984 12.0511 13.3178 12.7741 12.5949ZM20.21 12.0399C20.2987 11.9562 20.3697 11.8556 20.4188 11.744C20.468 11.6323 20.4942 11.512 20.496 11.3901C20.4977 11.2681 20.475 11.1471 20.4292 11.0341C20.3833 10.9211 20.3153 10.8184 20.2291 10.7322C20.1428 10.646 20.0402 10.5779 19.9272 10.5321C19.8142 10.4862 19.6931 10.4635 19.5712 10.4653C19.4492 10.4671 19.3289 10.4933 19.2173 10.5424C19.1057 10.5915 19.005 10.6625 18.9214 10.7513C18.7586 10.9238 18.6695 11.1529 18.673 11.3901C18.6764 11.6272 18.7722 11.8537 18.9399 12.0214C19.1076 12.1891 19.334 12.2848 19.5712 12.2883C19.8083 12.2917 20.0375 12.2026 20.21 12.0399Z" fill="#1F1F1F"/>
</svg>
