<svg width="24" height="25" viewBox="0 0 24 25" fill="none" xmlns="http://www.w3.org/2000/svg">
<path d="M12.3042 3.02016C15.4152 3.02016 15.804 3.02016 17.0679 3.11737C20.2761 3.21459 21.7344 4.77009 21.8316 7.88108C21.9288 9.14493 21.9288 9.43658 21.9288 12.5476C21.9288 15.6586 21.9288 16.0474 21.8316 17.2141C21.7344 20.3251 20.1789 21.8806 17.0679 21.9778C15.804 22.075 15.5124 22.075 12.3042 22.075C9.19317 22.075 8.8043 22.075 7.63768 21.9778C4.42946 21.8806 2.97118 20.3251 2.87397 17.2141C2.77675 15.9502 2.77675 15.6586 2.77675 12.5476C2.77675 9.43658 2.77675 9.04771 2.87397 7.88108C2.97118 4.77009 4.52668 3.21459 7.63768 3.11737C8.8043 3.02016 9.19317 3.02016 12.3042 3.02016ZM12.3042 0.881348C9.09595 0.881348 8.70708 0.881348 7.54046 0.978566C3.26284 1.173 0.929595 3.50625 0.735158 7.78387C0.637939 8.95049 0.637939 9.33936 0.637939 12.5476C0.637939 15.7558 0.637939 16.1447 0.735158 17.3113C0.929595 21.5889 3.26284 23.9221 7.54046 24.1166C8.70708 24.2138 9.09595 24.2138 12.3042 24.2138C15.5124 24.2138 15.9013 24.2138 17.0679 24.1166C21.3455 23.9221 23.6787 21.5889 23.8732 17.3113C23.9704 16.1447 23.9704 15.7558 23.9704 12.5476C23.9704 9.33936 23.9704 8.95049 23.8732 7.78387C23.6787 3.50625 21.3455 1.173 17.0679 0.978566C15.9013 0.881348 15.5124 0.881348 12.3042 0.881348ZM12.3042 6.52002C8.99874 6.52002 6.27662 9.24214 6.27662 12.5476C6.27662 15.853 8.99874 18.5751 12.3042 18.5751C15.6096 18.5751 18.3317 15.853 18.3317 12.5476C18.3317 9.24214 15.6096 6.52002 12.3042 6.52002ZM12.3042 16.4363C10.1654 16.4363 8.41542 14.6864 8.41542 12.5476C8.41542 10.4088 10.1654 8.65883 12.3042 8.65883C14.443 8.65883 16.1929 10.4088 16.1929 12.5476C16.1929 14.6864 14.443 16.4363 12.3042 16.4363ZM18.5262 4.96453C17.7484 4.96453 17.1651 5.54784 17.1651 6.32559C17.1651 7.10334 17.7484 7.68665 18.5262 7.68665C19.3039 7.68665 19.8872 7.10334 19.8872 6.32559C19.8872 5.54784 19.3039 4.96453 18.5262 4.96453Z" fill="white"/>
</svg>
