<svg width="25" height="20" viewBox="0 0 25 20" fill="none" xmlns="http://www.w3.org/2000/svg">
<path d="M8.30825 19.029C17.1133 19.029 21.9286 11.7341 21.9286 5.40867C21.9286 5.20141 21.9243 4.99521 21.9148 4.78981C22.8494 4.11417 23.662 3.27082 24.3029 2.31122C23.4452 2.6923 22.5222 2.94892 21.5538 3.06462C22.5421 2.47204 23.3011 1.53421 23.6591 0.416455C22.734 0.964983 21.7096 1.36357 20.6195 1.57853C19.7456 0.648127 18.5015 0.0661621 17.125 0.0661621C14.4811 0.0661621 12.3371 2.21012 12.3371 4.85271C12.3371 5.22848 12.3793 5.59363 12.4611 5.94419C8.48286 5.74436 4.95498 3.83925 2.59422 0.942957C2.18263 1.65018 1.94565 2.47231 1.94565 3.34884C1.94565 5.00954 2.79086 6.47573 4.07607 7.33369C3.29083 7.30954 2.55309 7.09352 1.90796 6.73474C1.9069 6.75464 1.9069 6.77481 1.9069 6.79577C1.9069 9.11434 3.55726 11.05 5.74739 11.4886C5.34535 11.5982 4.92234 11.6572 4.48554 11.6572C4.17717 11.6572 3.8773 11.6264 3.58566 11.5709C4.19495 13.4726 5.96234 14.8568 8.05773 14.8958C6.41905 16.1799 4.35497 16.945 2.1123 16.945C1.72618 16.945 1.34511 16.923 0.970398 16.8787C3.08888 18.2363 5.60435 19.029 8.30825 19.029Z" fill="white"/>
</svg>
