<svg width="30" height="31" viewBox="0 0 30 31" fill="none" xmlns="http://www.w3.org/2000/svg">
<circle cx="15" cy="15.8208" r="15" fill="white"/>
<path d="M23 11.2463C22.4484 11.4806 21.8481 11.6492 21.2298 11.7149C21.8717 11.3393 22.3525 10.746 22.5818 10.0463C21.9794 10.3991 21.3195 10.6466 20.6313 10.7776C20.3437 10.4748 19.9958 10.2336 19.6094 10.069C19.2229 9.90437 18.8062 9.81989 18.3852 9.82081C16.6816 9.82081 15.3116 11.1806 15.3116 12.8492C15.3116 13.0835 15.3405 13.3178 15.3873 13.5433C12.8366 13.4119 10.5616 12.2119 9.04915 10.3747C8.77357 10.8382 8.62916 11.3659 8.63093 11.9031C8.63093 12.9539 9.17354 13.8806 10.001 14.4255C9.51335 14.4066 9.03715 14.2746 8.6111 14.0403V14.0776C8.6111 15.5492 9.66747 16.7687 11.0754 17.0492C10.811 17.1168 10.5391 17.1514 10.266 17.1522C10.0659 17.1522 9.87658 17.1326 9.68549 17.106C10.0749 18.306 11.2087 19.1776 12.5589 19.206C11.5026 20.0208 10.1794 20.5001 8.7427 20.5001C8.48492 20.5001 8.24697 20.4912 8 20.4628C9.36282 21.3238 10.9798 21.8208 12.7212 21.8208C18.3744 21.8208 21.4677 17.209 21.4677 13.206C21.4677 13.0747 21.4677 12.9433 21.4587 12.8119C22.0572 12.3806 22.5818 11.8463 23 11.2463Z" fill="#1F1F1F"/>
</svg>
