<svg width="136" height="46" viewBox="0 0 136 46" fill="none" xmlns="http://www.w3.org/2000/svg">
<path d="M2.15199 33.5V11.6818H10.3338C12.0099 11.6818 13.4162 11.973 14.5526 12.5554C15.696 13.1378 16.5589 13.9545 17.1413 15.0057C17.7308 16.0497 18.0256 17.2678 18.0256 18.6598C18.0256 20.0589 17.7273 21.2734 17.1307 22.3033C16.5412 23.326 15.6712 24.1179 14.5206 24.679C13.37 25.233 11.9567 25.5099 10.2805 25.5099H4.45312V22.2287H9.74787C10.728 22.2287 11.5305 22.0937 12.1555 21.8239C12.7805 21.5469 13.2422 21.1456 13.5405 20.62C13.8459 20.0874 13.9986 19.4339 13.9986 18.6598C13.9986 17.8857 13.8459 17.2251 13.5405 16.6783C13.2351 16.1243 12.7699 15.7053 12.1449 15.4212C11.5199 15.13 10.7138 14.9844 9.72656 14.9844H6.1044V33.5H2.15199ZM13.4233 23.6136L18.8246 33.5H14.4141L9.10866 23.6136H13.4233ZM15.0637 33.5V11.6818H23.2455C24.9217 11.6818 26.3279 11.973 27.4643 12.5554C28.6077 13.1378 29.4707 13.9545 30.0531 15.0057C30.6425 16.0497 30.9373 17.2678 30.9373 18.6598C30.9373 20.0589 30.639 21.2734 30.0424 22.3033C29.4529 23.326 28.5829 24.1179 27.4323 24.679C26.2817 25.233 24.8684 25.5099 23.1923 25.5099H17.3648V22.2287H22.6596C23.6397 22.2287 24.4423 22.0937 25.0673 21.8239C25.6923 21.5469 26.1539 21.1456 26.4522 20.62C26.7576 20.0874 26.9103 19.4339 26.9103 18.6598C26.9103 17.8857 26.7576 17.2251 26.4522 16.6783C26.1468 16.1243 25.6816 15.7053 25.0566 15.4212C24.4316 15.13 23.6255 14.9844 22.6383 14.9844H19.0161V33.5H15.0637ZM26.335 23.6136L31.7363 33.5H27.3258L22.0204 23.6136H26.335Z" fill="#1F1F1F"/>
<path d="M27.9754 33.5V11.6818H41.9527V14.995H31.9278V20.9183H40.9939V24.2315H31.9278V33.5H27.9754Z" fill="#FC3314"/>
<path d="M50.152 33.5V11.6818H64.3423V14.995H54.1044V20.9183H63.6072V24.2315H54.1044V30.1868H64.4276V33.5H50.152ZM71.6772 11.6818L76.4819 19.6719H76.6523L81.4783 11.6818H85.9847L79.2624 22.5909L86.0913 33.5H81.5103L76.6523 25.5632H76.4819L71.6239 33.5H67.0643L73.957 22.5909L67.1495 11.6818H71.6772ZM91.8894 33.5H87.6706L95.3517 11.6818H100.231L107.923 33.5H103.704L97.8766 16.1562H97.7061L91.8894 33.5ZM92.0279 24.9453H103.534V28.12H92.0279V24.9453ZM110.797 11.6818H115.633L122.11 27.4915H122.366L128.843 11.6818H133.68V33.5H129.887V18.5107H129.685L123.655 33.4361H120.821L114.792 18.4787H114.589V33.5H110.797V11.6818Z" fill="#FC3314"/>
</svg>
